# Blender v2.93.0 OBJ File: ''
# www.blender.org
mtllib goomba.mtl
o goomba
v -0.002374 0.008212 0.220931
v -0.001322 -0.420972 0.220931
v -0.002374 0.008212 -0.208254
v -0.001322 -0.420972 -0.208254
v 0.148097 -0.429132 0.062040
v 0.129201 -0.416795 0.323337
v -0.031642 -0.417677 0.069444
v -0.047746 -0.407162 0.292140
v 0.232329 -0.426678 0.136818
v 0.223096 -0.420650 0.264496
v -0.131871 -0.418686 0.214807
v -0.125859 -0.422612 0.131667
v 0.218113 -0.372965 0.133254
v 0.147525 -0.350750 0.079238
v 0.208880 -0.366937 0.260932
v 0.152871 -0.327749 0.255033
v 0.162103 -0.333777 0.127354
v 0.131636 -0.340376 0.298964
v -0.116078 -0.377418 0.208018
v -0.039903 -0.357447 0.272411
v -0.111140 -0.380643 0.139725
v -0.023008 -0.346647 0.123552
v -0.030952 -0.341460 0.233415
v -0.026161 -0.366420 0.082378
v 0.248771 -0.428772 -0.190392
v 0.234685 -0.374912 -0.191318
v 0.233883 -0.430479 -0.063114
v 0.219797 -0.376619 -0.064041
v -0.118888 -0.424841 -0.125318
v -0.102495 -0.383227 -0.131845
v -0.109194 -0.423729 -0.208197
v -0.094531 -0.382314 -0.199924
v 0.178962 -0.335325 -0.197307
v -0.005793 -0.347574 -0.210084
v 0.164073 -0.337032 -0.070030
v -0.018604 -0.349043 -0.100566
v -0.011966 -0.415177 -0.268731
v -0.007450 -0.364848 -0.249522
v 0.167590 -0.426559 -0.265881
v 0.166197 -0.349361 -0.244003
v 0.137121 -0.430052 -0.005407
v 0.140575 -0.352298 -0.024967
v -0.037934 -0.418154 -0.046735
v -0.029609 -0.367388 -0.060085
v 0.334584 0.171812 -0.087361
v 0.360071 -0.135569 -0.071223
v 0.255986 0.173531 -0.243744
v -0.095094 -0.213248 -0.185371
v -0.057119 -0.129217 -0.375922
v 0.254756 -0.133243 -0.285059
v -0.247478 -0.127463 -0.297898
v 0.117309 -0.065518 -0.396374
v -0.231696 0.178959 -0.221300
v -0.073057 0.177779 -0.339609
v 0.102608 0.181718 -0.334982
v 0.182446 -0.216831 -0.104511
v 0.371709 -0.071112 0.115448
v 0.317293 0.176981 0.100079
v 0.262520 -0.136226 0.263557
v 0.232030 0.171122 0.264589
v 0.058821 -0.134562 0.387363
v 0.094901 -0.217421 0.195933
v -0.253054 -0.130536 0.296501
v -0.116979 -0.067096 0.407672
v 0.081729 0.172358 0.354283
v -0.096662 0.180377 0.348886
v 0.199624 0.399065 0.066229
v 0.133905 0.360052 0.258098
v -0.182639 -0.213837 0.115074
v -0.371709 -0.128299 0.128447
v -0.247314 0.176606 0.258419
v -0.369352 -0.061545 -0.100455
v -0.317574 0.178381 0.073422
v -0.309319 0.185071 -0.082480
v 0.248131 0.360821 -0.133910
v 0.066759 0.401993 -0.202197
v -0.120970 0.365587 -0.241445
v -0.186643 0.404052 -0.046307
v -0.235195 0.364818 0.150563
v 0.005771 0.464161 0.009874
v -0.055805 0.401168 0.218424
vt 0.037945 0.707570
vt 0.037945 0.952499
vt 0.233597 0.707570
vt 0.233597 0.952499
vt 0.000000 0.000000
vt 1.000000 1.000000
vt 1.000000 0.000000
vt 0.000000 0.000000
vt 1.000000 1.000000
vt 0.000000 0.000000
vt 1.000000 1.000000
vt 1.000000 0.000000
vt 0.000000 0.000000
vt 0.000000 0.000000
vt 1.000000 1.000000
vt 0.000000 0.000000
vt 1.000000 1.000000
vt 0.000000 0.000000
vt 1.000000 1.000000
vt 1.000000 0.000000
vt 1.000000 1.000000
vt 0.000000 0.000000
vt 1.000000 1.000000
vt 1.000000 0.000000
vt 1.000000 1.000000
vt 1.000000 1.000000
vt 1.000000 0.000000
vt 1.000000 1.000000
vt 0.000000 0.000000
vt 1.000000 0.000000
vt 0.000000 0.000000
vt 1.000000 1.000000
vt 1.000000 0.000000
vt 1.000000 1.000000
vt 0.000000 0.000000
vt 1.000000 1.000000
vt 1.000000 1.000000
vt 0.000000 0.000000
vt 1.000000 0.000000
vt 0.000000 0.000000
vt 1.000000 1.000000
vt 0.000000 0.000000
vt 1.000000 0.000000
vt 0.000000 0.000000
vt 1.000000 1.000000
vt 1.000000 0.000000
vt 1.000000 1.000000
vt 1.000000 0.000000
vt 1.000000 1.000000
vt 0.000000 0.000000
vt 1.000000 1.000000
vt 0.000000 0.000000
vt 1.000000 0.000000
vt 1.000000 0.000000
vt 0.000000 0.000000
vt 1.000000 1.000000
vt 1.000000 0.000000
vt 0.000000 0.000000
vt 1.000000 1.000000
vt 0.000000 0.000000
vt 1.000000 1.000000
vt 1.000000 0.000000
vt 0.000000 0.000000
vt 1.000000 1.000000
vt 0.000000 0.000000
vt 1.000000 1.000000
vt 1.000000 0.000000
vt 0.000000 0.000000
vt 1.000000 1.000000
vt 0.000000 0.000000
vt 1.000000 1.000000
vt 1.000000 0.000000
vt 0.000000 0.000000
vt 1.000000 1.000000
vt 0.000000 0.000000
vt 1.000000 1.000000
vt 1.000000 0.000000
vt 0.000000 0.000000
vt 1.000000 1.000000
vt 1.000000 0.000000
vt 0.000000 0.000000
vt 1.000000 0.000000
vt 1.000000 0.000000
vt 0.000000 0.000000
vt 1.000000 1.000000
vt 1.000000 0.000000
vt 1.000000 1.000000
vt 0.000000 0.000000
vt 0.000000 0.000000
vt 1.000000 1.000000
vt 1.000000 0.000000
vt 1.000000 1.000000
vt 1.000000 0.000000
vt 0.000000 0.000000
vt 1.000000 0.000000
vt 1.000000 1.000000
vt 1.000000 0.000000
vt 1.000000 1.000000
vt 0.000000 0.000000
vt 1.000000 0.000000
vt 1.000000 1.000000
vt 1.000000 0.000000
vt 1.000000 1.000000
vt 1.000000 1.000000
vt 0.000000 0.000000
vt 0.894862 0.322613
vt 0.891700 0.486888
vt 0.947431 0.318654
vt 0.420158 0.612568
vt 0.547826 0.542306
vt 0.547826 0.542306
vt 0.464032 0.543295
vt 0.592885 0.487382
vt 0.416996 0.287481
vt 0.523320 0.287481
vt 0.551383 0.280554
vt 0.420158 0.612568
vt 0.523320 0.287481
vt 0.432411 0.543295
vt 0.962055 0.480950
vt 0.820553 0.454725
vt 0.820553 0.320633
vt 0.749407 0.488372
vt 0.746640 0.324592
vt 0.679447 0.483919
vt 0.210672 0.612568
vt 0.083004 0.542306
vt 0.083004 0.542306
vt 0.198419 0.543295
vt 0.037945 0.487382
vt 0.107510 0.287481
vt 0.079447 0.280554
vt 0.820949 0.200396
vt 0.737549 0.221672
vt 0.210672 0.612568
vt 0.166798 0.543295
vt 0.107510 0.287481
vt 0.315415 0.487382
vt 0.213834 0.287481
vt 0.315415 0.280554
vt 0.904348 0.219693
vt 0.460474 0.097476
vt 0.452569 0.130134
vt 0.315415 0.097476
vt 0.178261 0.130134
vt 0.452569 0.130134
vt 0.315415 0.047501
vt 0.315415 0.097476
vt 0.170356 0.097476
vt 0.178261 0.130134
vt 0.694466 0.322118
vn 1.0000 0.0024 0.0000
vn 0.2482 -0.5823 -0.7741
vn 0.1238 -0.5122 0.8498
vn -0.2859 -0.5427 -0.7897
vn -0.4040 -0.4520 0.7952
vn 0.7903 -0.5452 -0.2794
vn 0.7372 -0.5130 0.4396
vn -0.7957 -0.4978 0.3450
vn -0.7369 -0.5231 -0.4281
vn 0.8078 0.4743 -0.3500
vn 0.2510 0.6219 -0.7418
vn 0.7505 0.5152 0.4138
vn 0.2675 0.9476 0.1743
vn 0.2904 0.9324 -0.2150
vn 0.1445 0.6843 0.7147
vn -0.7277 0.6497 0.2197
vn -0.3815 0.6756 0.6308
vn -0.6826 0.6302 -0.3700
vn -0.2162 0.9451 -0.2451
vn -0.2510 0.9597 0.1261
vn -0.2774 0.6017 -0.7490
vn 0.8003 -0.5269 -0.2860
vn 0.8188 0.4907 -0.2980
vn 0.7209 -0.5413 0.4327
vn 0.7365 0.4890 0.4673
vn -0.8112 -0.5092 0.2875
vn -0.7335 0.6492 0.2013
vn -0.7224 -0.5065 -0.4707
vn -0.6673 0.6450 -0.3724
vn 0.3003 0.9410 -0.1557
vn -0.2045 0.9563 -0.2088
vn 0.2600 0.9372 0.2323
vn -0.2551 0.9534 0.1611
vn -0.2403 -0.4734 -0.8474
vn -0.2335 0.6568 -0.7170
vn 0.2759 -0.5359 -0.7978
vn 0.2745 0.6609 -0.6984
vn 0.0897 -0.5596 0.8239
vn 0.1194 0.6421 0.7572
vn -0.4270 -0.5195 0.7401
vn -0.4093 0.6281 0.6618
vn 0.9520 0.2412 -0.1883
vn 0.8477 -0.5067 -0.1568
vn 0.6982 0.2533 -0.6695
vn -0.1400 -0.9648 -0.2226
vn -0.1762 -0.4920 -0.8526
vn 0.6123 -0.4949 -0.6166
vn -0.6101 -0.4183 -0.6729
vn 0.3013 -0.1748 -0.9373
vn -0.7292 0.2580 -0.6337
vn -0.2948 0.2623 -0.9188
vn 0.2883 0.3595 -0.8874
vn 0.2295 -0.9652 -0.1252
vn 0.9330 -0.1850 0.3085
vn 0.9033 0.3197 0.2860
vn 0.6460 -0.4946 0.5815
vn 0.7179 0.2220 0.6597
vn 0.1849 -0.4983 0.8470
vn 0.1274 -0.9659 0.2254
vn -0.5758 -0.4981 0.6483
vn -0.2810 -0.1545 0.9472
vn 0.2356 0.2386 0.9421
vn -0.2680 0.3356 0.9030
vn 0.5814 0.7951 0.1723
vn 0.3808 0.6760 0.6309
vn -0.2366 -0.9655 0.1091
vn -0.8672 -0.4505 0.2120
vn -0.7020 0.2845 0.6529
vn -0.9435 -0.1655 -0.2869
vn -0.9475 0.2897 0.1348
vn -0.8988 0.3450 -0.2704
vn 0.6556 0.6763 -0.3356
vn 0.1766 0.8146 -0.5525
vn -0.3768 0.6790 -0.6300
vn -0.5655 0.8087 -0.1619
vn -0.6535 0.6739 0.3446
vn 0.0089 0.9999 0.0063
vn -0.1615 0.8115 0.5616
usemtl Material.087_goomba_grp.png
s 1
f 1/1/1 2/2/1 3/3/1
f 2/2/1 4/4/1 3/3/1
usemtl Material.056
f 5/5/2 6/6/3 7/7/4
f 6/8/3 8/9/5 7/7/4
f 9/10/6 10/11/7 5/12/2
f 10/13/7 6/6/3 5/12/2
f 8/14/5 11/15/8 7/7/4
f 11/16/8 12/17/9 7/7/4
f 13/18/10 9/19/6 14/20/11
f 9/10/6 5/21/2 14/20/11
f 15/22/12 13/23/10 16/24/13
f 13/18/10 17/25/14 16/24/13
f 10/13/7 15/26/12 6/27/3
f 15/22/12 18/28/15 6/27/3
f 19/29/16 11/15/8 20/30/17
f 11/16/8 8/9/5 20/30/17
f 21/31/18 19/32/16 22/33/19
f 19/29/16 23/34/20 22/33/19
f 12/35/9 21/36/18 7/7/4
f 21/31/18 24/37/21 7/7/4
f 22/38/19 17/25/14 24/39/21
f 17/40/14 14/41/11 24/39/21
f 16/42/13 23/34/20 18/43/15
f 23/44/20 20/45/17 18/43/15
f 13/18/10 14/41/11 17/46/14
f 15/22/12 16/47/13 18/43/15
f 19/29/16 20/45/17 23/48/20
f 21/31/18 22/49/19 24/39/21
f 14/50/11 5/21/2 24/39/21
f 5/5/2 7/51/4 24/39/21
f 20/52/17 8/9/5 18/43/15
f 8/14/5 6/6/3 18/43/15
f 23/44/20 16/47/13 22/33/19
f 16/42/13 17/25/14 22/33/19
f 21/31/18 12/17/9 19/53/16
f 12/35/9 11/15/8 19/53/16
f 15/22/12 10/11/7 13/54/10
f 10/13/7 9/19/6 13/54/10
usemtl Material.055
f 25/55/22 26/56/23 27/57/24
f 26/58/23 28/59/25 27/57/24
f 29/60/26 30/61/27 31/62/28
f 30/63/27 32/64/29 31/62/28
f 33/65/30 34/66/31 35/67/32
f 34/68/31 36/69/33 35/67/32
f 37/70/34 38/71/35 39/72/36
f 38/73/35 40/74/37 39/72/36
f 41/75/38 42/76/39 43/77/40
f 42/78/39 44/79/41 43/77/40
f 30/63/27 44/79/41 36/80/33
f 32/81/29 34/66/31 38/82/35
f 26/58/23 40/74/37 33/83/30
f 28/84/25 35/85/32 42/86/39
f 34/68/31 33/87/30 38/82/35
f 33/65/30 40/74/37 38/82/35
f 35/88/32 36/69/33 42/86/39
f 36/89/33 44/79/41 42/86/39
f 30/63/27 29/90/26 44/91/41
f 29/60/26 43/92/40 44/91/41
f 32/81/29 30/61/27 34/93/31
f 30/63/27 36/69/33 34/93/31
f 31/94/28 32/64/29 37/95/34
f 32/81/29 38/71/35 37/95/34
f 26/58/23 25/96/22 40/97/37
f 25/55/22 39/98/36 40/97/37
f 28/84/25 26/56/23 35/67/32
f 26/58/23 33/87/30 35/67/32
f 27/99/24 28/59/25 41/100/38
f 28/84/25 42/76/39 41/100/38
f 31/94/28 37/101/34 29/102/26
f 37/70/34 43/92/40 29/102/26
f 25/55/22 27/103/24 39/72/36
f 27/99/24 41/104/38 39/72/36
f 39/105/36 41/104/38 37/95/34
f 41/75/38 43/92/40 37/95/34
usemtl Material.054_goomba_grp.png
f 45/106/42 46/107/43 47/108/44
f 48/109/45 49/110/46 50/111/47
f 49/110/46 48/109/45 51/112/48
f 52/113/49 50/111/47 49/110/46
f 51/112/48 53/114/50 49/110/46
f 53/114/50 54/115/51 49/110/46
f 49/110/46 54/115/51 52/113/49
f 52/113/49 55/116/52 50/111/47
f 54/115/51 55/116/52 52/113/49
f 56/117/53 48/109/45 50/111/47
f 55/116/52 47/118/44 50/111/47
f 46/119/43 56/117/53 50/111/47
f 46/107/43 50/120/47 47/108/44
f 57/121/54 58/122/55 59/123/56
f 57/121/54 59/123/56 46/107/43
f 46/107/43 45/106/42 57/121/54
f 45/106/42 58/122/55 57/121/54
f 58/122/55 60/124/57 59/123/56
f 59/123/56 60/124/57 61/125/58
f 62/126/59 61/127/58 63/128/60
f 61/127/58 62/126/59 59/129/56
f 64/130/61 63/128/60 61/127/58
f 61/127/58 65/131/62 66/132/63
f 64/130/61 61/127/58 66/132/63
f 64/130/61 66/132/63 63/128/60
f 58/122/55 67/133/64 68/134/65
f 69/135/66 62/126/59 63/128/60
f 70/136/67 69/135/66 63/128/60
f 66/132/63 71/137/68 63/128/60
f 70/136/67 63/128/60 71/137/68
f 72/138/69 51/112/48 70/136/67
f 70/136/67 51/112/48 69/135/66
f 73/139/70 70/136/67 71/137/68
f 70/136/67 73/139/70 72/138/69
f 72/138/69 74/140/71 51/112/48
f 73/139/70 74/140/71 72/138/69
f 74/140/71 53/114/50 51/112/48
f 51/112/48 48/109/45 69/135/66
f 45/106/42 75/141/72 58/122/55
f 75/141/72 67/133/64 58/122/55
f 45/106/42 47/108/44 75/141/72
f 47/118/44 55/116/52 76/142/73
f 54/115/51 77/143/74 55/116/52
f 77/143/74 76/142/73 55/116/52
f 53/114/50 77/143/74 54/115/51
f 76/142/73 77/143/74 78/144/75
f 74/140/71 78/144/75 77/143/74
f 53/114/50 74/140/71 77/143/74
f 73/139/70 71/137/68 79/145/76
f 75/146/72 47/118/44 76/142/73
f 80/147/77 76/142/73 78/144/75
f 67/148/64 75/146/72 76/142/73
f 80/147/77 67/148/64 76/142/73
f 71/137/68 66/132/63 81/149/78
f 65/131/62 68/150/65 66/132/63
f 68/150/65 81/149/78 66/132/63
f 81/149/78 68/150/65 67/148/64
f 79/145/76 71/137/68 81/149/78
f 78/144/75 79/145/76 81/149/78
f 80/147/77 81/149/78 67/148/64
f 80/147/77 78/144/75 81/149/78
f 79/145/76 78/144/75 74/140/71
f 73/139/70 79/145/76 74/140/71
f 59/129/56 62/126/59 56/117/53
f 60/124/57 58/122/55 68/134/65
f 69/135/66 48/109/45 56/117/53
f 62/126/59 69/135/66 56/117/53
f 60/124/57 65/151/62 61/125/58
f 60/124/57 68/134/65 65/151/62
f 46/119/43 59/129/56 56/117/53
