# Wavefront OBJ file
# Exported by Misfit Model 3D 1.3.8
# Tue Mar 29 22:24:59 2016

mtllib treasurechest.mtl

# 48 Vertices
v 0.273295 1.198009 0.785209
v 0.273296 1.198144 1.052515
v 0.273293 1.404915 0.953639
v 0.273296 1.404829 0.786569
v -0.307456 1.198144 1.052515
v -0.307457 1.404915 0.953639
v -0.307456 1.198009 0.785209
v -0.307455 1.404829 0.786569
v 1.059014 1.197145 -0.918864
v 1.059016 1.847596 -0.045845
v 1.059015 1.197992 0.751799
v 1.263987 1.197078 -1.052515
v -1.263985 1.197078 -1.052515
v -1.059015 1.197145 -0.918864
v -1.059015 1.197992 0.751799
v -1.059015 1.847596 -0.045845
v 1.263987 2.024853 -0.078095
v 1.263987 1.90701 0.589397
v -1.263987 1.90701 0.589397
v -1.263985 2.024853 -0.078095
v -1.263987 1.906315 -0.780546
v 1.263987 1.906315 -0.780546
v -1.263987 1.198076 0.918865
v 1.263986 1.198076 0.918865
v 0.273295 0.828098 0.763152
v 0.273296 0.828182 0.930212
v 0.273294 1.182784 1.032787
v 0.273295 1.182665 0.798891
v -0.307456 0.828182 0.930212
v -0.307455 1.182784 1.032787
v -0.307455 0.828098 0.763152
v -0.307455 1.182665 0.798891
v 1.059018 1.182648 0.765481
v 1.059015 0.148438 0.558199
v 1.059016 0.147796 -0.711504
v 1.059019 1.181803 -0.905183
v -1.059015 1.182648 0.765481
v -1.059015 0.148438 0.558199
v -1.059018 1.181803 -0.905183
v -1.059014 0.147796 -0.711504
v -1.263985 0.0 -0.846124
v -1.263987 0.000777 0.690879
v 1.263987 0.000777 0.690879
v 1.263987 0.0 -0.846124
v 1.263987 1.181734 -1.038833
v 1.263987 1.182716 0.899131
v -1.263987 1.182716 0.899131
v -1.263987 1.181734 -1.038833

# 228 Texture Coordinates
vt 0.00195 0.99805
vt 0.00586 0.99805
vt 0.00391 0.6504
vt 0.00391 0.6504
vt 0.00586 0.99805
vt 0.00195 0.60157
vt 0.99022 0.99805
vt 0.00195 0.99805
vt 0.99022 0.6504
vt 0.99022 0.6504
vt 0.00195 0.99805
vt 0.00391 0.6504
vt 0.98631 0.99805
vt 0.99022 0.99805
vt 0.99022 0.60157
vt 0.99022 0.60157
vt 0.99022 0.99805
vt 0.99022 0.6504
vt 0.99022 0.99805
vt 0.98631 0.99805
vt 0.00195 0.99805
vt 0.00195 0.99805
vt 0.98631 0.99805
vt 0.00586 0.99805
vt 0.00391 0.6504
vt 0.00195 0.60157
vt 0.99022 0.6504
vt 0.99022 0.6504
vt 0.00195 0.60157
vt 0.99022 0.60157
vt 0.71532 0.99805
vt 0.80419 0.00783
vt 0.6289 0.00783
vt 0.65087 0.76465
vt 0.65624 0.76465
vt 0.72704 0.76465
vt 0.72704 0.76465
vt 0.65624 0.76465
vt 0.72167 0.76465
vt 0.7163 0.99805
vt 0.62938 0.01076
vt 0.80663 0.01076
vt 0.43017 0.99121
vt 0.42968 0.00783
vt 0.12695 0.99121
vt 0.12695 0.99121
vt 0.42968 0.00783
vt 0.12695 0.01076
vt 0.00342 0.48438
vt 0.0 1.0
vt 1.0034 0.48438
vt 1.0034 0.48438
vt 0.0 1.0
vt 0.99998 1.0
vt 0.99998 0.00587
vt 0.99998 0.52833
vt 0.0 0.00587
vt 0.0 0.00587
vt 0.99998 0.52833
vt 0.0 0.52833
vt 0.6455 0.49903
vt 0.72557 0.6045
vt 0.62646 0.00392
vt 0.99998 0.49903
vt 0.9995 0.00099
vt 0.0 0.49903
vt 0.0 0.49903
vt 0.9995 0.00099
vt 0.0 0.00099
vt 0.79491 0.49903
vt 0.72557 0.60157
vt 0.80516 0.00099
vt 0.0 0.50587
vt 0.0 1.0
vt 0.99998 0.50587
vt 0.99998 0.50587
vt 0.0 1.0
vt 0.9995 1.0
vt 0.6494 0.76758
vt 0.72411 0.76758
vt 0.6494 0.76758
vt 0.6494 0.76758
vt 0.72411 0.76758
vt 0.72411 0.76758
vt 0.70995 0.76465
vt 0.70653 0.76465
vt 0.66796 0.76465
vt 0.66796 0.76465
vt 0.70653 0.76465
vt 0.67138 0.76465
vt 0.72509 0.76758
vt 0.65038 0.76758
vt 0.72509 0.76758
vt 0.72509 0.76758
vt 0.65038 0.76758
vt 0.65038 0.76758
vt 0.42675 0.00783
vt 0.42675 0.99023
vt 0.12646 0.00783
vt 0.12646 0.00783
vt 0.42675 0.99023
vt 0.12646 0.99316
vt 0.6455 0.49512
vt 0.62987 0.00099
vt 0.72557 0.60157
vt 0.80516 0.00099
vt 0.72557 0.60157
vt 0.62987 0.00099
vt 0.79491 0.50196
vt 0.8037 0.00392
vt 0.72557 0.6045
vt 0.62646 0.00392
vt 0.72557 0.6045
vt 0.8037 0.00392
vt 0.00195 0.00783
vt 0.0 0.00002
vt 0.00195 0.6543
vt 0.00195 0.6543
vt 0.0 0.00002
vt 0.00195 0.6543
vt 0.99608 0.00783
vt 0.00195 0.00783
vt 0.99022 0.6543
vt 0.99022 0.6543
vt 0.00195 0.00783
vt 0.00195 0.6543
vt 0.99998 0.00002
vt 0.99608 0.00783
vt 0.99217 0.6543
vt 0.99217 0.6543
vt 0.99608 0.00783
vt 0.99022 0.6543
vt 0.00195 0.6543
vt 0.00195 0.6543
vt 0.99022 0.6543
vt 0.99022 0.6543
vt 0.00195 0.6543
vt 0.99217 0.6543
vt 0.99608 0.00783
vt 0.99998 0.00002
vt 0.00195 0.00783
vt 0.00195 0.00783
vt 0.99998 0.00002
vt 0.0 0.00002
vt 0.42724 0.00978
vt 0.42724 0.99316
vt 0.12842 0.00978
vt 0.12842 0.00978
vt 0.42724 0.99316
vt 0.12842 0.99316
vt 0.43017 0.00685
vt 0.43017 0.99707
vt 0.12646 0.00685
vt 0.12646 0.00685
vt 0.43017 0.99707
vt 0.12695 0.99707
vt 0.56737 0.01662
vt 0.56689 0.99316
vt 0.86913 0.01662
vt 0.86913 0.01662
vt 0.56689 0.99316
vt 0.86913 0.99316
vt 0.12646 0.00685
vt 0.12695 0.98633
vt 0.43163 0.00685
vt 0.43163 0.00685
vt 0.12695 0.98633
vt 0.43163 0.98633
vt 0.99754 0.99023
vt 0.99754 0.00783
vt 0.00342 0.99023
vt 0.00342 0.99023
vt 0.99754 0.00783
vt 0.00195 0.00783
vt 0.12842 0.00978
vt 0.12842 0.99902
vt 0.43017 0.00978
vt 0.43017 0.00978
vt 0.12842 0.99902
vt 0.43017 0.99902
vt 0.86669 0.00392
vt 0.8662 1.0
vt 0.56591 0.00392
vt 0.56591 0.00392
vt 0.8662 1.0
vt 0.56591 1.0
vt 0.00195 0.00002
vt 0.0 1.0
vt 0.99413 0.00002
vt 0.99413 0.00002
vt 0.0 1.0
vt 0.99998 1.0
vt 0.56689 0.00392
vt 0.56591 1.0
vt 0.86717 0.00392
vt 0.86717 0.00392
vt 0.56591 1.0
vt 0.8662 1.0
vt 0.99413 0.00002
vt 0.99998 1.0
vt 0.00195 0.00002
vt 0.00195 0.00002
vt 0.99998 1.0
vt 0.0 1.0
vt 0.65429 0.99316
vt 0.66063 0.99316
vt 0.65429 0.99316
vt 0.65429 0.99316
vt 0.66063 0.99316
vt 0.66063 0.99316
vt 0.65429 0.99316
vt 0.66063 0.99316
vt 0.7412 0.99316
vt 0.7412 0.99316
vt 0.66063 0.99316
vt 0.73436 0.99316
vt 0.7412 0.99316
vt 0.73436 0.99316
vt 0.7412 0.99316
vt 0.7412 0.99316
vt 0.73436 0.99316
vt 0.73436 0.99316
vt 0.7412 0.99316
vt 0.73436 0.99316
vt 0.65429 0.99316
vt 0.65429 0.99316
vt 0.73436 0.99316
vt 0.66063 0.99316

# 228 Vertex Normals
vn 1.0 0.000013 -0.000004
vn 1.0 0.000004 0.000007
vn 1.0 0.000004 0.000007
vn 1.0 0.000004 0.000007
vn 1.0 0.000004 0.000007
vn 1.0 -0.000005 0.000018
vn 0.0 0.431404 0.902159
vn 0.0 0.431404 0.902159
vn 0.0 0.846129 0.532978
vn 0.0 0.846129 0.532978
vn 0.0 0.431404 0.902159
vn 0.0 0.846129 0.532978
vn -1.0 0.000005 -0.0
vn -1.0 -0.000003 -0.000006
vn -1.0 -0.000003 -0.000006
vn -1.0 -0.000003 -0.000006
vn -1.0 -0.000003 -0.000006
vn -1.0 -0.000011 -0.000012
vn 0.0 -1.0 0.000505
vn -0.0 -1.0 0.000505
vn -0.0 -1.0 0.000505
vn -0.0 -1.0 0.000505
vn -0.0 -1.0 0.000505
vn -0.0 -1.0 0.000505
vn 0.0 0.846129 0.532978
vn 0.0 1.0 -0.000514
vn 0.0 0.846129 0.532978
vn 0.0 0.846129 0.532978
vn 0.0 1.0 -0.000514
vn -0.0 1.0 -0.000514
vn -1.0 0.000002 0.000001
vn -1.0 0.000002 0.000001
vn -1.0 0.000002 0.000001
vn 0.0 -1.0 0.000505
vn 0.000001 -0.987816 0.155626
vn -0.000001 -1.0 0.000503
vn -0.000001 -1.0 0.000503
vn 0.000001 -0.987816 0.155626
vn 0.0 -0.967851 0.251526
vn 1.0 0.0 -0.0
vn 1.0 0.0 -0.0
vn 1.0 0.0 -0.0
vn 0.0 -0.962244 -0.272189
vn 0.0 -0.967851 0.251526
vn -0.0 -0.973085 0.230447
vn -0.0 -0.973085 0.230447
vn 0.0 -0.967851 0.251526
vn 0.000001 -0.987816 0.155626
vn -0.0 0.676878 0.736095
vn -0.0 0.998124 0.061232
vn -0.0 0.885505 0.46463
vn -0.0 0.885505 0.46463
vn -0.0 0.998124 0.061232
vn -0.0 0.998559 -0.053674
vn 0.0 0.64181 -0.766864
vn -0.0 0.998559 -0.053674
vn 0.0 0.878608 -0.477544
vn 0.0 0.878608 -0.477544
vn -0.0 0.998559 -0.053674
vn -0.0 0.998124 0.061232
vn 1.0 0.0 0.0
vn 1.0 -0.000001 0.0
vn 1.0 -0.0 0.0
vn -0.0 0.885505 0.46463
vn -0.0 0.421448 0.906853
vn -0.0 0.676878 0.736095
vn -0.0 0.676878 0.736095
vn -0.0 0.421448 0.906853
vn -0.0 0.421448 0.906853
vn -1.0 -0.000001 -0.000003
vn -1.0 -0.000001 -0.0
vn -1.0 -0.0 -0.000002
vn 0.0 0.878608 -0.477544
vn 0.0 0.358045 -0.933704
vn 0.0 0.64181 -0.766864
vn 0.0 0.64181 -0.766864
vn 0.0 0.358045 -0.933704
vn 0.0 0.358045 -0.933704
vn -0.000001 -1.0 0.000504
vn 0.0 -0.963663 -0.267121
vn 0.0 -1.0 0.000505
vn 0.0 -1.0 0.000505
vn 0.0 -0.963663 -0.267121
vn 0.000001 -0.987816 0.155626
vn 0.0 -1.0 0.000505
vn 0.000001 -0.986363 -0.164586
vn -0.000001 -1.0 0.000504
vn -0.000001 -1.0 0.000504
vn 0.000001 -0.986363 -0.164586
vn 0.0 -0.963663 -0.267121
vn -0.000001 -1.0 0.000503
vn 0.0 -0.967851 0.251526
vn 0.0 -1.0 0.000505
vn 0.0 -1.0 0.000505
vn 0.0 -0.967851 0.251526
vn 0.000001 -0.986363 -0.164586
vn 0.000001 -0.986363 -0.164586
vn 0.0 -0.962244 -0.272189
vn 0.0 -0.963663 -0.267121
vn 0.0 -0.963663 -0.267121
vn 0.0 -0.962244 -0.272189
vn -0.0 -0.973085 0.230447
vn -1.0 -0.000004 0.000003
vn -1.0 -0.000001 0.000001
vn -1.0 -0.000001 -0.0
vn -1.0 -0.0 -0.000002
vn -1.0 -0.000001 -0.0
vn -1.0 -0.000001 0.000001
vn 1.0 -0.000001 -0.0
vn 1.0 -0.000001 0.0
vn 1.0 -0.000001 0.0
vn 1.0 -0.0 0.0
vn 1.0 -0.000001 0.0
vn 1.0 -0.000001 0.0
vn 1.0 0.000007 -0.000006
vn 1.0 0.000003 -0.000001
vn 1.0 0.000003 -0.000001
vn 1.0 0.000003 -0.000001
vn 1.0 0.000003 -0.000001
vn 1.0 -0.0 0.000004
vn 0.0 -0.799185 0.601085
vn 0.0 -0.799185 0.601085
vn -0.0 -0.277876 0.960617
vn -0.0 -0.277876 0.960617
vn 0.0 -0.799185 0.601085
vn -0.0 -0.277876 0.960617
vn -1.0 0.000001 -0.000006
vn -1.0 0.000002 -0.000003
vn -1.0 0.000002 -0.000003
vn -1.0 0.000002 -0.000003
vn -1.0 0.000002 -0.000003
vn -1.0 0.000003 -0.0
vn 0.0 1.0 -0.000509
vn 0.0 1.0 -0.000509
vn 0.0 1.0 -0.000509
vn 0.0 1.0 -0.000509
vn 0.0 1.0 -0.000509
vn -0.0 1.0 -0.000509
vn 0.0 -0.799185 0.601085
vn 0.0 -1.0 0.000503
vn 0.0 -0.799185 0.601085
vn 0.0 -0.799185 0.601085
vn 0.0 -1.0 0.000503
vn -0.0 -1.0 0.000503
vn -1.0 0.000003 -0.000001
vn -1.0 0.000003 -0.000001
vn -1.0 0.000003 -0.000001
vn -1.0 0.000003 -0.000001
vn -1.0 0.000003 -0.000001
vn -1.0 0.000003 -0.000001
vn 0.0 0.912995 -0.407971
vn -0.000001 0.865633 -0.50068
vn 0.0 0.579023 -0.815311
vn 0.0 0.579023 -0.815311
vn -0.000001 0.865633 -0.50068
vn -0.000001 0.955907 -0.293671
vn 1.0 0.000004 0.000001
vn 1.0 0.000002 -0.0
vn 1.0 0.000002 -0.0
vn 1.0 0.000002 -0.0
vn 1.0 0.000002 -0.0
vn 1.0 0.0 -0.000002
vn -0.0 0.91207 0.410034
vn 0.000001 0.863836 0.503774
vn -0.0 0.571359 0.820701
vn -0.0 0.571359 0.820701
vn 0.000001 0.863836 0.503774
vn -0.000002 0.95564 0.294536
vn -0.0 -0.564409 0.825495
vn 0.0 -0.909778 -0.415095
vn -0.0 -0.910701 0.413065
vn -0.0 -0.910701 0.413065
vn 0.0 -0.909778 -0.415095
vn 0.0 -0.556529 -0.830828
vn 0.0 0.579023 -0.815311
vn -0.0 0.91207 0.410034
vn 0.0 0.912995 -0.407971
vn 0.0 0.912995 -0.407971
vn -0.0 0.91207 0.410034
vn -0.0 0.571359 0.820701
vn 1.0 0.0 0.0
vn 1.0 0.0 0.0
vn 1.0 0.0 0.0
vn 1.0 0.0 0.0
vn 1.0 0.0 0.0
vn 1.0 0.0 -0.0
vn -0.0 -0.910701 0.413065
vn -0.0 -0.173522 0.98483
vn -0.0 -0.564409 0.825495
vn -0.0 -0.564409 0.825495
vn -0.0 -0.173522 0.98483
vn -0.0 -0.173522 0.98483
vn -1.0 0.0 -0.000001
vn -1.0 -0.000001 -0.000001
vn -1.0 -0.000001 -0.000001
vn -1.0 -0.000001 -0.000001
vn -1.0 -0.000001 -0.000001
vn -1.0 -0.000002 0.0
vn 0.0 -0.909778 -0.415095
vn 0.0 -0.160947 -0.986963
vn 0.0 -0.556529 -0.830828
vn 0.0 -0.556529 -0.830828
vn 0.0 -0.160947 -0.986963
vn 0.0 -0.160947 -0.986963
vn 0.000002 1.0 -0.000513
vn 0.000001 0.863836 0.503774
vn 0.000002 1.0 -0.000507
vn 0.000002 1.0 -0.000507
vn 0.000001 0.863836 0.503774
vn -0.000001 0.955907 -0.293671
vn 0.000002 1.0 -0.000507
vn -0.000001 0.955907 -0.293671
vn 0.000001 1.0 -0.000508
vn 0.000001 1.0 -0.000508
vn -0.000001 0.955907 -0.293671
vn -0.000001 0.865633 -0.50068
vn 0.000001 1.0 -0.000508
vn -0.000001 0.865633 -0.50068
vn -0.000002 1.0 -0.00051
vn -0.000002 1.0 -0.00051
vn -0.000001 0.865633 -0.50068
vn -0.000002 0.95564 0.294536
vn -0.000002 1.0 -0.00051
vn -0.000002 0.95564 0.294536
vn 0.000002 1.0 -0.000513
vn 0.000002 1.0 -0.000513
vn -0.000002 0.95564 0.294536
vn 0.000001 0.863836 0.503774

# DrawCall_18, 56 grouped triangles

usemtl trasurechest_chest
o DrawCall_18
g DrawCall_18

f 10/31/31 9/32/32 11/33/33
f 12/34/34 9/35/35 13/36/36
f 13/37/37 9/38/38 14/39/39
f 16/40/40 15/41/41 14/42/42
f 16/43/43 14/44/44 10/45/45
f 10/46/46 14/47/47 9/48/48
f 18/49/49 17/50/50 19/51/51
f 19/52/52 17/53/53 20/54/54
f 21/55/55 20/56/56 22/57/57
f 22/58/58 20/59/59 17/60/60
f 22/61/61 17/62/62 12/63/63
f 19/64/64 23/65/65 18/66/66
f 18/67/67 23/68/68 24/69/69
f 19/70/70 20/71/71 23/72/72
f 22/73/73 12/74/74 21/75/75
f 21/76/76 12/77/77 13/78/78
f 24/79/79 11/80/80 12/81/81
f 12/82/82 11/83/83 9/84/84
f 23/85/85 15/86/86 24/87/87
f 24/88/88 15/89/89 11/90/90
f 13/91/91 14/92/92 23/93/93
f 23/94/94 14/95/95 15/96/96
f 15/97/97 16/98/98 11/99/99
f 11/100/100 16/101/101 10/102/102
f 21/103/103 13/104/104 20/105/105
f 23/106/106 20/107/107 13/108/108
f 18/109/109 24/110/110 17/111/111
f 12/112/112 17/113/113 24/114/114
f 34/145/145 33/146/146 35/147/147
f 35/148/148 33/149/149 36/150/150
f 38/151/151 37/152/152 34/153/153
f 34/154/154 37/155/155 33/156/156
f 40/157/157 39/158/158 38/159/159
f 38/160/160 39/161/161 37/162/162
f 35/163/163 36/164/164 40/165/165
f 40/166/166 36/167/167 39/168/168
f 42/169/169 41/170/170 43/171/171
f 43/172/172 41/173/173 44/174/174
f 34/175/175 35/176/176 38/177/177
f 38/178/178 35/179/179 40/180/180
f 44/181/181 45/182/182 43/183/183
f 43/184/184 45/185/185 46/186/186
f 43/187/187 46/188/188 42/189/189
f 42/190/190 46/191/191 47/192/192
f 42/193/193 47/194/194 41/195/195
f 41/196/196 47/197/197 48/198/198
f 41/199/199 48/200/200 44/201/201
f 44/202/202 48/203/203 45/204/204
f 45/205/205 36/206/206 46/207/207
f 46/208/208 36/209/209 33/210/210
f 46/211/211 33/212/212 47/213/213
f 47/214/214 33/215/215 37/216/216
f 47/217/217 37/218/218 48/219/219
f 48/220/220 37/221/221 39/222/222
f 48/223/223 39/224/224 45/225/225
f 45/226/226 39/227/227 36/228/228
# DrawCall_19, 20 grouped triangles

usemtl treasurechest_lock
o DrawCall_19
g DrawCall_19

f 2/1/1 1/2/2 3/3/3
f 3/4/4 1/5/5 4/6/6
f 5/7/7 2/8/8 6/9/9
f 6/10/10 2/11/11 3/12/12
f 7/13/13 5/14/14 8/15/15
f 8/16/16 5/17/17 6/18/18
f 5/19/19 7/20/20 2/21/21
f 2/22/22 7/23/23 1/24/24
f 3/25/25 4/26/26 6/27/27
f 6/28/28 4/29/29 8/30/30
f 26/115/115 25/116/116 27/117/117
f 27/118/118 25/119/119 28/120/120
f 29/121/121 26/122/122 30/123/123
f 30/124/124 26/125/125 27/126/126
f 31/127/127 29/128/128 32/129/129
f 32/130/130 29/131/131 30/132/132
f 27/133/133 28/134/134 30/135/135
f 30/136/136 28/137/137 32/138/138
f 29/139/139 31/140/140 26/141/141
f 26/142/142 31/143/143 25/144/144
