# Blender v2.93.0 OBJ File: ''
# www.blender.org
mtllib plant.mtl
o plant
v 0.396546 -0.124937 -0.162268
v 0.044584 -0.281002 -0.020940
v 0.227930 0.016220 -0.426296
v -0.124032 -0.139846 -0.284967
v -0.484109 -0.021200 -0.080744
v -0.315267 0.100590 -0.354101
v -0.005344 -0.158242 -0.278013
v -0.174185 -0.280033 -0.004656
v 0.128107 0.077601 0.341895
v 0.127911 0.024126 0.327344
v 0.114525 0.030343 0.178044
v -0.265377 0.079085 0.341752
v -0.250458 0.031511 0.178675
v -0.265573 0.025610 0.327201
v -0.069375 -0.004650 0.435752
v -0.069178 0.048825 0.450303
v 0.146137 0.076838 0.344908
v 0.142206 0.127445 0.326960
v -0.047364 0.148753 0.442787
v -0.043780 0.102611 0.459151
v -0.245576 0.057811 0.377018
v -0.249623 0.109906 0.358542
v 0.161028 0.084031 0.171938
v -0.289008 0.062170 0.208829
v -0.243318 0.029713 0.115837
v -0.288319 0.061185 0.088236
v -0.269499 0.034444 0.327958
v -0.068838 0.096051 -0.030791
v 0.105830 0.028397 0.115964
v 0.151085 0.059528 0.088396
v 0.131902 0.032930 0.328104
v -0.069352 0.001461 0.437414
v 0.076854 -0.098714 0.101028
v 0.084519 -0.152476 0.247229
v -0.069908 -0.170689 0.162469
v -0.069961 -0.170531 0.321690
v -0.223459 -0.151315 0.247116
v -0.215290 -0.097612 0.100921
v -0.069398 -0.049959 -0.000780
v -0.069779 -0.114797 0.403317
v -0.277047 -0.080046 0.302537
v -0.305906 0.018490 0.112696
v 0.138605 -0.081614 0.302689
v -0.068929 0.072027 -0.029944
v 0.168334 0.016702 0.112869
v -0.322036 -0.040978 0.325413
v -0.069655 -0.073987 0.491550
v 0.183872 -0.042886 0.325598
v -0.299845 0.040963 0.151409
v -0.080124 0.032273 -0.025689
v 0.165167 0.063551 0.113290
v -0.047075 0.145032 0.444106
v -0.253313 0.104715 0.358962
v 0.147070 0.124163 0.326140
v 0.144671 0.089638 0.063085
v -0.287334 0.068123 0.097003
v 0.142068 0.246119 0.279228
v 0.080248 0.336130 0.218811
v -0.055193 0.272550 0.420681
v -0.083258 0.084124 -0.033179
v -0.302158 0.125650 0.115199
v -0.235912 0.261601 0.101645
v -0.087871 0.220515 -0.008604
v 0.154020 0.149038 0.076519
v -0.068441 0.350144 0.305123
v 0.072199 0.277314 0.076119
v -0.081537 0.349664 0.145147
v -0.226344 0.321238 0.243944
v -0.268561 0.226173 0.312889
v 0.206826 0.174972 0.309069
v -0.047148 0.215013 0.484687
v -0.320450 0.149360 0.352292
v -0.062576 -0.005745 -0.141495
v -0.057051 0.050558 -0.010414
v -0.090263 -0.045878 -0.120809
v -0.077566 0.020523 0.005704
v -0.116201 -0.002268 -0.137861
v -0.097270 0.052808 -0.007521
v -0.052910 -0.134278 -0.189764
v -0.064328 -0.004701 -0.149235
v -0.086149 -0.149371 -0.147542
v -0.094049 -0.017593 -0.111013
v -0.109460 -0.135644 -0.197002
v -0.114578 -0.005866 -0.155836
v -0.028138 -0.268472 -0.149370
v -0.064050 -0.130596 -0.202484
v -0.050220 -0.253062 -0.097718
v -0.083738 -0.116611 -0.155815
v -0.084842 -0.277369 -0.137595
v -0.115512 -0.138996 -0.192609
v -0.125847 -0.249748 -0.120067
v -0.053216 -0.236240 -0.110555
v -0.068615 -0.244793 -0.183453
v -0.079723 -0.284554 -0.232934
v -0.172624 -0.293439 -0.130830
v -0.000396 -0.262797 -0.064401
v -0.083307 -0.261194 -0.047075
v -0.104433 -0.312232 -0.011835
v 0.031169 -0.314854 -0.040173
v 0.009755 -0.252370 -0.148406
v 0.046663 -0.297678 -0.176657
vt 0.357953 0.406583
vt 0.357953 0.670685
vt 0.488423 0.406583
vt 0.488423 0.670685
vt 0.488423 0.409218
vt 0.357953 0.409218
vt 0.357953 0.670685
vt 0.488423 0.670685
vt 0.566946 0.162815
vt 0.565743 0.028395
vt 0.150242 0.166202
vt 0.567211 0.163341
vt 0.136004 0.164664
vt 0.566044 0.040518
vt 0.964420 0.162913
vt 0.964266 0.026908
vt 0.431580 0.027488
vt 0.431734 0.163757
vt 0.027396 0.159990
vt 0.566811 0.032872
vt 0.026983 0.025303
vt 0.567211 0.163341
vt 0.974697 0.162091
vt 0.973242 0.031625
vt 0.436376 0.044343
vt 0.436742 0.163742
vt 0.025303 0.165004
vt 0.566845 0.043942
vt 0.025957 0.034532
vt 0.567211 0.163341
vt 0.431997 0.163493
vt 0.882448 0.163165
vt 0.429217 0.030659
vt 0.566157 0.163345
vt 0.566811 0.032872
vt 0.073537 0.164856
vt 0.000000 0.000000
vt 1.000000 1.000000
vt 1.000000 0.000000
vt 1.000000 1.000000
vt 1.000000 0.000000
vt 0.000000 0.000000
vt 1.000000 1.000000
vt 1.000000 0.000000
vt 1.000000 1.000000
vt 1.000000 0.000000
vt 0.643034 0.406583
vt 0.581921 0.409949
vt 0.643037 0.528487
vt 0.609417 0.616752
vt 0.552571 0.593147
vt 0.539030 0.480232
vt 0.104775 0.458978
vt 0.074727 0.555032
vt 0.171261 0.518440
vt 0.147470 0.625498
vt 0.244753 0.596253
vt 0.266042 0.498055
vt 0.203807 0.410812
vt 0.125797 0.464002
vt 0.068015 0.549201
vt 0.230629 0.517901
vt 0.207737 0.628773
vt 0.076099 0.542231
vt 0.192696 0.613502
vt 0.197493 0.509175
vt 0.107558 0.479507
vt 0.091701 0.497237
vt 0.190707 0.593715
vt 0.230525 0.545269
vt 0.179516 0.474195
vt 0.090261 0.547671
vt 0.285339 0.549137
vt 0.262025 0.645007
vt 0.132733 0.461820
vt 0.072528 0.529101
vt 0.277688 0.523799
vt 0.288262 0.641169
vt 0.145347 0.655965
vt 0.095896 0.551097
vt 0.286040 0.646266
vt 0.295444 0.569506
vt 0.160238 0.472548
vt 0.592517 0.292982
vt 0.553508 0.216809
vt 0.283607 0.287974
vt 0.093042 0.222871
vt 0.025303 0.285338
vt 0.466265 0.223661
vt 0.517925 0.302998
vt 0.468900 0.348596
vt 0.093306 0.352286
vt 0.122562 0.294827
vt 0.163417 0.341743
vt 0.527151 0.291664
vt 0.168425 0.217599
vt 0.475753 0.227615
vt 0.472854 0.355976
vt 0.146284 0.331464
vt 0.630208 0.320130
vt 0.210069 0.276904
vt 0.583028 0.340952
vt 0.332368 0.320921
vt 0.518716 0.290346
vt 0.308647 0.305897
vt 0.486823 0.326456
vt 0.317872 0.355976
vt 0.331578 0.224716
vt 0.641542 0.287710
vt 0.317081 0.291137
vt 0.317872 0.324084
vt 0.443070 0.260562
vt 0.457830 0.313541
vt 0.000000 0.000000
vt 1.000000 1.000000
vt 1.000000 0.000000
vt 0.000000 0.000000
vt 1.000000 1.000000
vt 0.000000 0.000000
vt 1.000000 1.000000
vt 0.000000 0.000000
vt 1.000000 1.000000
vt 0.000000 0.000000
vt 1.000000 0.000000
vt 1.000000 1.000000
vt 1.000000 0.000000
vt 0.191250 0.628071
vt 0.225843 0.519467
vt 0.055348 0.555741
vt 0.220800 0.491055
vt 0.046463 0.495664
vt 0.216917 0.529588
vt 0.025303 0.538180
vt 0.056480 0.648286
vt 0.191432 0.632090
vt 0.049616 0.615549
vt 0.059820 0.575398
vt 0.259094 0.630724
vt 0.288164 0.588073
vt 0.104709 0.471599
vt 0.133653 0.459618
vt 0.265838 0.469613
vt 0.146580 0.516209
vt 0.141948 0.605560
vt 0.051348 0.577633
vt 0.220200 0.507901
vt 0.124945 0.456297
vt 0.078023 0.546914
vt 0.205775 0.638836
vt 0.266985 0.406660
vt 0.201999 0.508659
vt 0.307347 0.481173
vt 0.151603 0.406583
vt 0.192392 0.501525
vt 0.267216 0.406788
vt 0.083116 0.515984
vt 0.225126 0.577838
vt 0.117105 0.593294
vt 0.192256 0.579505
vt 0.132478 0.520446
vt 0.063793 0.551381
vt 0.158763 0.629046
vt 0.231819 0.503794
vt 0.117416 0.453027
vt 0.060291 0.528344
vt 0.218089 0.610101
vt 0.436744 0.348069
vt 0.462047 0.304843
vt 0.299949 0.294563
vt 0.457303 0.222344
vt 0.321298 0.244220
vt 0.465474 0.304316
vt 0.454140 0.352550
vt 0.322089 0.336472
vt 0.296522 0.293245
vt 0.320244 0.351759
vt 0.441752 0.335154
vt 0.312600 0.302998
vt 0.466792 0.298517
vt 0.323670 0.235786
vt 0.447287 0.252918
vt 0.338958 0.348860
vt 0.450714 0.350441
vt 0.313391 0.301153
vt 0.435953 0.227088
vt 0.309174 0.224452
vt 0.318399 0.343588
vt 0.466792 0.298253
vt 0.333423 0.218126
vt 0.453613 0.221816
vt 0.675824 0.818589
vt 0.666736 0.688091
vt 0.545355 0.818189
vt 0.564469 0.687777
vt 0.670553 0.818573
vt 0.659630 0.684642
vt 0.545355 0.818189
vt 0.561318 0.684077
vt 0.675824 0.818589
vt 0.659105 0.684114
vt 0.545355 0.818189
vt 0.556838 0.683800
vt 0.675824 0.818589
vt 0.669382 0.684672
vt 0.545355 0.818189
vt 0.548665 0.684302
vt 0.673717 0.818055
vt 0.669899 0.688100
vt 0.539296 0.817379
vt 0.549196 0.683249
vt 0.675824 0.818589
vt 0.671493 0.684152
vt 0.545355 0.818189
vt 0.550776 0.683781
vt 0.675824 0.818589
vt 0.670431 0.686521
vt 0.545355 0.818189
vt 0.546551 0.686141
vt 0.676352 0.818591
vt 0.675710 0.684165
vt 0.539030 0.818169
vt 0.549182 0.687730
vt 0.675824 0.818589
vt 0.672008 0.688107
vt 0.540610 0.818438
vt 0.547348 0.684034
vt 0.567741 0.738394
vt 0.610119 0.671048
vt 0.651030 0.738649
vt 0.675824 0.818589
vt 0.545355 0.818189
vt 0.567483 0.736284
vt 0.652881 0.736810
vt 0.679251 0.818599
vt 0.545355 0.818189
vt 0.610394 0.667359
vt 0.545355 0.818189
vt 0.561944 0.737849
vt 0.675824 0.818589
vt 0.645233 0.738104
vt 0.567219 0.736547
vt 0.609338 0.667883
vt 0.650508 0.736803
vt 0.599315 0.670224
vt 0.570646 0.736558
vt 0.615665 0.667639
vt 0.653935 0.736813
vt 0.675824 0.818589
vt 0.545355 0.818189
vt 0.675824 0.818589
vt 0.545355 0.818189
vn 0.1508 -0.8285 -0.5393
vn -0.4355 -0.6910 -0.5769
vn 0.8162 -0.1545 0.5567
vn 0.9053 -0.1146 0.4091
vn 0.9958 0.0204 -0.0884
vn -0.8204 -0.1473 0.5525
vn -0.9945 0.0309 -0.1000
vn -0.9094 -0.1061 0.4022
vn -0.0022 -0.2626 0.9649
vn 0.8017 0.2541 0.5409
vn 0.8451 0.2358 0.4797
vn 0.0585 0.3377 0.9394
vn 0.0598 0.3377 0.9393
vn -0.7245 0.1797 0.6654
vn -0.7750 0.1569 0.6122
vn 0.9900 0.1087 0.0897
vn -0.9680 0.0136 0.2503
vn 0.2542 0.9326 0.2561
vn -0.5058 0.7124 -0.4864
vn -0.3948 0.8260 0.4023
vn 0.0025 0.7644 -0.6447
vn -0.2398 0.9406 0.2402
vn 0.5110 0.7083 -0.4870
vn 0.4346 0.7994 0.4147
vn -0.0058 0.7981 0.6025
vn 0.5038 -0.6382 -0.5821
vn 0.5199 -0.8511 0.0726
vn -0.0040 -0.9472 -0.3207
vn 0.0047 -0.9312 0.3645
vn -0.5502 -0.8335 0.0497
vn -0.5242 -0.6441 -0.5571
vn 0.0143 -0.4663 -0.8845
vn -0.0012 -0.8760 0.4823
vn -0.6289 -0.7564 0.1798
vn -0.9082 -0.1104 -0.4037
vn 0.6211 -0.7587 0.1962
vn 0.0034 -0.1393 -0.9902
vn 0.9046 -0.1105 -0.4116
vn -0.9038 -0.1883 0.3843
vn -0.0020 -0.2545 0.9671
vn 0.9019 -0.1952 0.3854
vn -0.6993 -0.7136 -0.0417
vn -0.0233 -0.7190 -0.6946
vn 0.7368 -0.6600 -0.1467
vn 0.0776 -0.7163 0.6934
vn -0.2557 -0.7523 0.6072
vn 0.4253 -0.7325 0.5314
vn 0.6720 -0.2568 -0.6945
vn -0.7405 -0.3187 -0.5916
vn 0.7030 0.6813 0.2040
vn 0.5540 0.8323 0.0198
vn 0.0071 0.7744 0.6326
vn -0.0886 0.0176 -0.9959
vn -0.8968 0.1153 -0.4272
vn -0.6448 0.5519 -0.5288
vn -0.1088 0.4172 -0.9022
vn 0.7949 0.2162 -0.5669
vn -0.0392 0.9290 0.3679
vn 0.5024 0.6193 -0.6034
vn -0.0755 0.9351 -0.3460
vn -0.6032 0.7840 0.1466
vn -0.7154 0.6178 0.3263
vn 0.9268 0.0835 0.3662
vn 0.0645 0.1893 0.9798
vn -0.8575 -0.0070 0.5144
vn 0.8826 0.4183 -0.2144
vn 0.8780 0.4243 -0.2215
vn -0.0156 -0.8839 0.4673
vn -0.0112 -0.8858 0.4639
vn -0.8467 0.5232 -0.0964
vn -0.8521 0.5143 -0.0967
vn 0.9156 0.1904 -0.3541
vn 0.9165 0.1896 -0.3522
vn -0.1069 -0.2704 0.9568
vn -0.1087 -0.2691 0.9569
vn -0.8097 0.1458 -0.5685
vn -0.8075 0.1502 -0.5705
vn 0.7734 -0.0470 -0.6321
vn 0.7748 -0.0427 -0.6307
vn 0.1211 0.4151 0.9017
vn 0.1219 0.4147 0.9018
vn -0.9058 -0.3144 -0.2839
vn -0.9027 -0.3123 -0.2958
vn -0.5315 0.8456 0.0481
vn 0.0438 0.9911 0.1254
vn -0.0781 0.8886 -0.4519
vn -0.1124 0.7864 -0.6074
vn -0.6832 0.7300 0.0156
vn 0.4559 0.7450 0.4869
vn -0.1968 0.7570 0.6231
vn -0.2641 0.6196 0.7391
vn 0.5608 0.6024 0.5679
vn 0.5344 0.8261 -0.1785
vn 0.6579 0.7041 -0.2673
usemtl Material.115_pirahna_plant_grp.png
s 1
f 1/1/1 2/2/1 3/3/1
f 2/2/1 4/4/1 3/3/1
usemtl Material.114_pirahna_plant_grp.png
f 5/5/2 6/6/2 7/7/2
f 8/8/2 5/5/2 7/7/2
usemtl Material.113_pirahna_plant_grp.png
f 9/9/3 10/10/4 11/11/5
f 12/12/6 13/13/7 14/14/8
f 12/15/6 14/16/8 15/17/9
f 16/18/9 12/15/6 15/17/9
f 9/19/3 15/20/9 10/21/4
f 16/22/9 15/20/9 9/19/3
usemtl Material.112_pirahna_plant_grp.png
f 17/23/10 18/24/11 19/25/12
f 20/26/13 17/23/10 19/25/12
f 21/27/14 19/28/12 22/29/15
f 20/30/13 19/28/12 21/27/14
f 17/31/10 23/32/16 18/33/11
f 21/34/14 22/35/15 24/36/17
usemtl Material.087
f 25/37/18 26/38/19 27/39/20
f 25/37/18 28/40/21 26/41/19
f 29/42/22 30/43/23 28/44/21
f 29/42/22 31/45/24 30/46/23
usemtl Material.086_pirahna_plant_grp.png
f 28/47/21 25/48/18 29/49/22
f 31/50/24 29/49/22 25/48/18
f 32/51/25 31/50/24 25/48/18
f 27/52/20 32/51/25 25/48/18
usemtl Material.085_pirahna_plant_grp.png
f 33/53/26 34/54/27 35/55/28
f 34/54/27 36/56/29 35/55/28
f 37/57/30 38/58/31 35/55/28
f 36/56/29 37/57/30 35/55/28
f 39/59/32 33/53/26 35/55/28
f 38/58/31 39/59/32 35/55/28
f 36/60/29 40/61/33 37/62/30
f 40/61/33 41/63/34 37/62/30
f 41/64/34 42/65/35 38/66/31
f 37/67/30 41/64/34 38/66/31
f 43/68/36 40/69/33 36/70/29
f 38/71/31 42/72/35 39/73/32
f 42/72/35 44/74/37 39/73/32
f 39/75/32 44/76/37 33/77/26
f 44/76/37 45/78/38 33/77/26
f 33/79/26 45/80/38 34/81/27
f 45/80/38 43/82/36 34/81/27
f 34/83/27 43/68/36 36/70/29
usemtl Material.084_pirahna_plant_grp.png
f 46/84/39 27/85/20 26/86/19
f 32/87/25 47/88/40 31/89/24
f 48/90/41 31/89/24 47/88/40
f 48/90/41 47/88/40 43/91/36
f 40/92/33 43/91/36 47/88/40
f 46/93/39 41/94/34 47/95/40
f 46/93/39 47/95/40 27/96/20
f 32/97/25 27/96/20 47/95/40
f 40/98/33 47/95/40 41/94/34
f 45/99/38 44/100/37 30/101/23
f 41/102/34 46/84/39 42/103/35
f 26/86/19 42/103/35 46/84/39
f 30/104/23 48/105/41 45/106/38
f 43/107/36 45/106/38 48/105/41
f 48/105/41 30/104/23 31/108/24
f 28/109/21 30/101/23 44/100/37
f 28/110/21 44/111/37 26/112/19
f 42/113/35 26/112/19 44/111/37
usemtl Material.083
f 49/114/42 50/115/43 51/116/44
f 52/117/45 53/118/46 51/116/44
f 54/119/47 52/120/45 51/116/44
f 53/121/46 49/122/42 51/116/44
f 51/123/44 50/115/43 55/124/48
f 49/114/42 56/125/49 50/126/43
usemtl Material.082_pirahna_plant_grp.png
f 57/127/50 58/128/51 59/129/52
f 50/130/43 56/131/49 60/132/53
f 61/133/54 62/134/55 60/132/53
f 62/134/55 63/135/56 60/132/53
f 61/133/54 60/132/53 56/131/49
f 50/136/43 60/137/53 55/138/48
f 64/139/57 55/138/48 60/137/53
f 60/137/53 63/140/56 64/139/57
f 58/128/51 65/141/58 59/129/52
f 63/140/56 66/142/59 64/139/57
f 58/143/51 67/144/60 65/145/58
f 66/146/59 58/147/51 57/148/50
f 64/149/57 66/146/59 57/148/50
f 66/150/59 67/151/60 58/152/51
f 63/153/56 67/154/60 66/155/59
f 62/156/55 67/154/60 63/153/56
f 65/157/58 67/154/60 68/158/61
f 68/158/61 67/154/60 62/156/55
f 68/159/61 62/160/55 61/161/54
f 69/162/62 68/159/61 61/161/54
f 65/163/58 68/164/61 69/165/62
f 59/166/52 65/163/58 69/165/62
usemtl Material.081_pirahna_plant_grp.png
f 54/167/47 70/168/63 71/169/64
f 69/170/62 61/171/54 72/172/65
f 53/173/46 72/172/65 49/174/42
f 61/171/54 56/175/49 72/172/65
f 56/175/49 49/174/42 72/172/65
f 54/176/47 51/177/44 70/178/63
f 51/177/44 55/179/48 70/178/63
f 57/180/50 70/178/63 64/181/57
f 55/179/48 64/181/57 70/178/63
f 53/182/46 52/183/45 72/184/65
f 57/185/50 59/186/52 70/168/63
f 59/186/52 71/169/64 70/168/63
f 52/187/45 54/167/47 71/169/64
f 52/183/45 71/188/64 72/184/65
f 69/189/62 72/184/65 71/188/64
f 59/190/52 69/189/62 71/188/64
usemtl Material.080_pirahna_plant_grp.png
f 73/191/66 74/192/67 75/193/68
f 74/192/67 76/194/69 75/193/68
f 75/195/68 76/196/69 77/197/70
f 76/196/69 78/198/71 77/197/70
f 77/199/70 78/200/71 73/201/66
f 78/200/71 74/202/67 73/201/66
usemtl Material.079_pirahna_plant_grp.png
f 79/203/72 80/204/73 81/205/74
f 80/204/73 82/206/75 81/205/74
f 81/207/74 82/208/75 83/209/76
f 82/208/75 84/210/77 83/209/76
f 83/211/76 84/212/77 79/213/72
f 84/212/77 80/214/73 79/213/72
usemtl Material.078_pirahna_plant_grp.png
f 85/215/78 86/216/79 87/217/80
f 86/216/79 88/218/81 87/217/80
f 87/219/80 88/220/81 89/221/82
f 88/220/81 90/222/83 89/221/82
f 89/223/82 90/224/83 85/225/78
f 90/224/83 86/226/79 85/225/78
usemtl Material.077_pirahna_plant_grp.png
f 91/227/84 92/228/85 93/229/86
f 91/227/84 93/229/86 94/230/87
f 95/231/88 91/227/84 94/230/87
f 96/232/89 97/233/90 98/234/91
f 99/235/92 96/232/89 98/234/91
f 96/232/89 92/236/85 97/233/90
f 98/237/91 97/238/90 95/239/88
f 97/238/90 91/240/84 95/239/88
f 100/241/93 92/242/85 96/243/89
f 97/238/90 92/244/85 91/240/84
f 93/245/86 92/246/85 100/247/93
f 93/245/86 100/247/93 101/248/94
f 94/249/87 93/245/86 101/248/94
f 100/241/93 96/243/89 99/250/92
f 101/251/94 100/241/93 99/250/92
