# Blender v2.93.0 OBJ File: ''
# www.blender.org
mtllib invader.mtl
o ShapeIndexedFaceSet.049
v 0.232423 -0.020019 0.214647
v 0.232431 0.361638 -0.393997
v 0.179602 -0.000032 -0.069902
v -0.179600 -0.000032 -0.069902
v -0.232420 -0.312847 -0.441372
v -0.274683 -0.000032 -0.069902
v 0.232423 -0.020019 0.214647
v 0.179602 -0.000032 -0.069902
v 0.232429 -0.312847 -0.441372
v 0.232423 -0.020019 0.214647
v 0.232429 -0.312847 -0.441372
v 0.274685 -0.000033 -0.069902
v -0.179600 -0.000032 -0.069902
v -0.274683 -0.000032 -0.069902
v -0.232419 0.361638 -0.393996
v 0.232423 -0.020019 0.214647
v 0.274685 -0.000033 -0.069902
v 0.232431 0.361638 -0.393997
v -0.274683 -0.000032 -0.069902
v -0.232420 -0.312847 -0.441372
v -0.232427 -0.020019 0.214647
v 0.232431 0.361638 -0.393997
v 0.274685 -0.000033 -0.069902
v 0.179602 -0.000032 -0.069902
v -0.232419 0.361638 -0.393996
v -0.274683 -0.000032 -0.069902
v -0.232427 -0.020019 0.214647
v -0.232420 -0.312847 -0.441372
v -0.179600 -0.000032 -0.069902
v -0.232427 -0.020019 0.214647
v -0.179600 -0.000032 -0.069902
v -0.232419 0.361638 -0.393996
v -0.232427 -0.020019 0.214647
v 0.274685 -0.000033 -0.069902
v 0.232429 -0.312847 -0.441372
v 0.179602 -0.000032 -0.069902
v -0.623323 -0.022240 0.246264
v -0.000001 -0.184199 0.139570
v -0.000007 0.022662 0.662461
v -0.623323 -0.022240 0.246264
v -0.000001 0.153044 0.163258
v 0.000005 0.019954 -0.354451
v -0.000001 -0.184199 0.139570
v 0.623319 -0.022240 0.246263
v -0.000007 0.022662 0.662461
v -0.000001 -0.184199 0.139570
v -0.623323 -0.022240 0.246264
v 0.000005 0.019954 -0.354451
v -0.000001 0.153044 0.163258
v 0.623319 -0.022240 0.246263
v 0.000005 0.019954 -0.354451
v 0.623319 -0.022240 0.246263
v -0.000001 -0.184199 0.139570
v 0.000005 0.019954 -0.354451
v -0.000001 0.153044 0.163258
v -0.623323 -0.022240 0.246264
v -0.000007 0.022662 0.662461
v 0.623319 -0.022240 0.246263
v -0.000001 0.153044 0.163258
v -0.000007 0.022662 0.662461
vt 0.000000 1.000000
vt 1.000000 0.000000
vt 1.000000 0.999000
vt 0.000000 0.999000
vt 1.000000 1.000000
vt 1.000000 0.000000
vt 0.000000 0.999000
vt 1.000000 1.000000
vt 1.000000 0.000000
vt 0.000000 1.000000
vt 1.000000 0.000000
vt 1.000000 0.999000
vt 0.000000 1.000000
vt 1.000000 0.000000
vt 1.000000 1.000000
vt 0.000000 1.000000
vt 1.000000 1.000000
vt 1.000000 0.000000
vt 1.000000 0.999000
vt 1.000000 0.000000
vt 0.000000 1.000000
vt 1.000000 0.999000
vt 0.000000 1.000000
vt 1.000000 0.000000
vt 0.000000 0.999000
vt 1.000000 1.000000
vt 1.000000 0.000000
vt 1.000000 0.000000
vt 1.000000 0.999000
vt 0.000000 0.999000
vt 1.000000 1.000000
vt 1.000000 0.000000
vt 0.000000 1.000000
vt 0.000000 0.999000
vt 1.000000 0.999000
vt 1.000000 0.000000
vt 0.000000 1.000000
vt 1.000000 1.000000
vt 1.000000 0.000000
vt 0.000000 1.000000
vt 1.000000 1.000000
vt 1.000000 0.000000
vt 1.000000 1.000000
vt 0.000000 1.000000
vt 1.000000 0.000000
vt 1.000000 1.000000
vt 0.000000 1.000000
vt 1.000000 0.000000
vt 1.000000 1.007800
vt 0.000000 0.999000
vt 1.000000 0.000000
vt 0.000000 1.000000
vt 1.000000 1.000000
vt 1.000000 0.000000
vt 1.000000 1.000000
vt 1.000000 0.000000
vt 0.000000 0.999000
vt 1.006800 0.006800
vt 1.000000 1.000000
vt 0.000000 0.999000
vn -0.9305 0.3102 0.1945
vn -0.0000 0.7649 -0.6441
vn -0.9305 -0.3344 0.1492
vn 0.9538 -0.2742 0.1224
vn -0.0000 -0.6674 -0.7447
vn 0.9538 0.2544 0.1595
vn -0.9539 -0.2742 0.1224
vn -0.9538 0.2544 0.1595
vn 0.9305 -0.3344 0.1493
vn 0.9305 0.3102 0.1945
vn -0.1759 -0.9154 0.3621
vn -0.2922 0.9262 -0.2381
vn 0.1759 -0.9154 0.3621
vn -0.2922 -0.8839 -0.3653
vn 0.2922 0.9262 -0.2381
vn 0.2922 -0.8839 -0.3653
vn -0.2319 0.9412 0.2458
vn 0.2319 0.9412 0.2458
usemtl Material.001_51C76775_c.png
s 1
f 1/1/1 2/2/1 3/3/1
f 4/4/2 5/5/2 6/6/2
f 7/7/3 8/8/3 9/9/3
f 10/10/4 11/11/4 12/12/4
f 13/13/5 14/14/5 15/15/5
f 16/16/6 17/17/6 18/18/6
f 19/19/7 20/20/7 21/21/7
f 22/22/5 23/23/5 24/24/5
f 25/25/8 26/26/8 27/27/8
f 28/28/9 29/29/9 30/30/9
f 31/31/10 32/32/10 33/33/10
f 34/34/2 35/35/2 36/36/2
usemtl Material.001_4C1B3283_c.png
f 37/37/11 38/38/11 39/39/11
f 40/40/12 41/41/12 42/42/12
f 43/43/13 44/44/13 45/45/13
f 46/46/14 47/47/14 48/48/14
f 49/49/15 50/50/15 51/51/15
f 52/52/16 53/53/16 54/54/16
usemtl Material.001_5D27B1D9_c.png
f 55/55/17 56/56/17 57/57/17
f 58/58/18 59/59/18 60/60/18
